<svg version="1.1" id="Layer_1" xmlns="http://www.w3.org/2000/svg" x="0px" y="0px" viewBox="0 0 918 174.1" style="enable-background:new 0 0 918 174.1;" xmlns:xlink="http://www.w3.org/1999/xlink" xml:space="preserve" data-inject-url="https://cdn.shopify.com/s/files/1/0014/1962/t/53/assets/logo-bloodborne.svg?v=7121328185592068342" class="injectable">

<path class="st0" d="M161.1,114.5c0,0.1,0.1,0.1,0.1,0.2C161.2,114.7,161.1,114.6,161.1,114.5z M161,114.3l0.1,0.1
	C161,114.4,161,114.3,161,114.3z"></path>
<path class="st0" d="M161.2,114.7c0,0.1,0.1,0.1,0.1,0.2C161.3,114.8,161.2,114.8,161.2,114.7z M160.3,113.1
	C160.3,113.1,160.3,113,160.3,113.1C160.3,113,160.3,113.1,160.3,113.1c-1.7-3-1.9-18.1-8.5-15.2c3.2-6.2-23.8-14.5-28.3-16.3
	c6.1-1.5,13.6-3,17.5-8.4c2.8-3.8,7.6-7.2,8.7-11.9c3.2-13.6,4.3-24.5-5.6-35.6c-7.8-8.8-29.5-12.1-40.2-9.3c-2.5,0.1-18.3,2-18,2.7
	c-3.2,0.9-14.8,2.3-14.6-0.2c-5.8,0.5-10.1-1.2-16.2-2.2c-2.7-2.3-3.5,2.4-3.1,3.6c0.7-0.6,0.5-0.2,1.6-0.1c0,0-0.1,0.1-0.2,0.1
	c1,1.6,4.5,1.4,5.7,2.4c-0.8,4.1,2,2.9,3.5,5.9c1.6,3.4-1.8,7.2,3.8,8.9c0.1,5.5-0.2,11,0.1,16.4c-2.1,1,1.3,20.1,0.6,22.7
	c-1.3,4.8-1,9.8-1,14.9c0,6.6-2.4,19.9,0.4,25.8c-0.3,5.4-0.3,10.9-0.3,16.4c-3.1,0.8-1.8,7.2-2.7,9.1c-2.6,5.2-5.7,5.2-10.4,6.1
	c-7.5,1.5-15.2,4.4-22.5,6.9c-5,1.7-8.8,3.4-13.5,5.5c-1.1,0.5-13.9,5.1-7,7.3c4.6,1.4,24.5-12.8,25-11.1
	c22.8-9.1,46.2-3.2,69.9-3.2c7.7,1.5,19-0.8,27-2.1c2.9,2.1,12.5-6,14.1-7.1C154.1,141.5,166.3,123.7,160.3,113.1z M98.3,20.9
	c17.2-0.1,31.5,3.1,35.8,20.5c4,16.1-3.9,32.8-20.3,36.9c-7.3,1.8-17-0.8-23.8-3.4c-8.6-3.2-9.5-6.7-9.5-15
	C81.6,44.9,80,24.8,98.3,20.9z M142.1,127.4c-1.1,12.2-13.9,18.1-23.9,21.4c-8.2,2.7-19-0.3-25.4-5.6c1.6-0.8-3-6.6-4.3-7.2
	c-3.2-1.4-6.6-0.9-6.9-5.9c-0.4-6-1-11.9-1-18.3V90.4c0-3.8,0.1-7.6,0.2-11.4c0.3-8.6,10.5,2.7,14.6,2.8c4.6,0.1,9.4,1.9,14,2.7
	C117,86,126.9,88,134,92.7C145,100,143.1,115.9,142.1,127.4z"></path>
<path class="st0" d="M161.3,114.9C161.3,115,161.4,115,161.3,114.9z M160.4,113.2c0,0,0-0.1-0.1-0.1
	C160.3,113.1,160.3,113.2,160.4,113.2z M161,114.4C161.1,114.5,161.1,114.5,161,114.4z"></path>
<path class="st0" d="M160.6,113.5c0.1,0.1,0.1,0.2,0.2,0.3C160.7,113.8,160.6,113.7,160.6,113.5z M160.4,113.2
	C160.4,113.2,160.4,113.3,160.4,113.2C160.4,113.3,160.4,113.2,160.4,113.2z"></path>
<path class="st0" d="M160.4,113.3c0.1,0.1,0.1,0.2,0.2,0.3C160.5,113.5,160.5,113.4,160.4,113.3z M160.7,113.8
	c0.1,0.1,0.1,0.2,0.2,0.3C160.8,114,160.8,113.9,160.7,113.8z"></path>
<path class="st0" d="M822.4,149c-15.6,0-12-14.2-12.1-26c0-10.7,2.5-28-1.8-37.5c-2.5-7.7-14-17.9-22.3-17.9c-2.6,0-6.8,6.6-9,8.2
	c-5.5,4.1-12.8,7.8-17.3,13.5c0.3-1.9-0.4-3-0.7-4.1h0.1c0-1.8-2-6.9-2.2-7.3c-2.3-0.7-10-5.9-10.2-7.9c-2.9,1.3-3.7,4.7-4.9,5.9
	c-1.4,0.5-9.6,5.8-7.9,7.1c6.4,0.1,11.8-2.6,14,6.5c-0.9-0.1-0.4,35.2-0.4,39.6c0,7.7,1.3,15.5-7.8,18.5c-1.2,0.4-14.8,2-9.5,5.8
	c3.9-0.1,11-2.4,13.6-2.1c6.4,0.7,12.9-0.1,19.8,0.7c0.8,1.5,8.6,1.3,10.5,0.7c2.4-2.9-7.3-4.6-9.1-5.7c-7.3-4.8-3.9-24.5-3.9-32
	s-3.1-18.1,2.8-24.3V91c1.2-0.1,4.5-2.3,4.5-3.5c0-1.7,4.5-1.9,5.8-2.5c6.3-2.5,14-1.7,18.5,3.1c0.2,1.9,2.6,8.2,3.7,9.9
	c0.4,2.6,0,5.5,0,8.1l0.1,24.5c0.1,4.8,1,9.3-2.8,12.6c-3.2,2.7-6.6,5.4-10.9,6.1c-3,0.5-0.9,4.3,1.7,3.7c1.9,2.1,22.7-0.2,26.3-0.4
	C815.3,152.7,825.9,155.9,822.4,149C821.2,149,823.1,150.3,822.4,149L822.4,149z M751.2,83.8c-0.1-0.2-0.3-0.4-0.4-0.7
	C750.9,83.3,751.1,83.5,751.2,83.8z M743.6,74.9c0,0.1-0.1,0.2-0.1,0.3C743.3,75,743.4,74.9,743.6,74.9z M573.1,115.9
	c4-1.2-4-24.2-4.5-28c-1.4-0.2-0.1,0.5-0.6,1c-6.2-8.9-11.6-19.9-23-22.7c-1.9-0.5-9.8-0.3-14.2-0.6c-1.5,0.1-3.1,0.2-4.6,0.4
	c-0.3,0.4-1.1,0-2,0.3c0.4,0.7-0.1,0.3,0.5,0.6c-6.6,1.6-13,5.9-17.5,11c-0.3-13.7,0.6-28.3-1.1-41.9c0-6.9-0.8-14.5,2.1-21
	c2.2-4.9,9.3-4.9,9.5-10.6c-8.8,0-17.7,9.5-20.6,17c-3.8,9.7-8.5,11.8-17.5,14.7c1.6,3.5,7.8,2.7,10.2,4.2
	c2.9-1.1,2.8,19.2,2.8,22.8c0,4.1,0.3,29.8,0.8,29.8c2.3,4.2,0.1,16.7,0.2,21.4c0.3,10.6,1.7,25.7-5.9,34.3c-1,1.2-8.1,3.6-5.3,5.6
	c1.8,1.3,13.7-2.9,16.7-3c7.6-0.2,14.4,1.4,21.9,3c14.6,3,33.3-3.2,42.9-14.8c3.5-4.3,11.4-18.1,9.5-23.2
	C573.2,116.2,573.2,116.1,573.1,115.9L573.1,115.9z M495.7,39.8c0.5-0.2,1-0.6,1.3-1C496.8,39.7,496.7,40.1,495.7,39.8z M500.5,87.9
	v0.5C500.3,88.2,500.3,88.1,500.5,87.9z M558.7,122.4c-0.8,5.5-3.3,18.5-10.2,20.7c0.3,1-8.3,3.5-8.8,3.7
	c-7.5,2.1-14.9,2.8-22.2,0.1c-11.5-4.3-9.2-18-10.5-27.9c-1-7.9,0.8-15.9,0.6-23.6c-0.3-10.6,1-11.8,9.4-17.6
	c14.9-10.3,35.1,6.2,39.5,19.6C559.2,105.5,559.8,114.6,558.7,122.4z"></path>
<path class="st0" d="M518.6,150.4C519.6,150.5,521,150.9,518.6,150.4C518.6,150.4,519,150.5,518.6,150.4z M540.6,75.3
	C539.8,75.6,539.8,74.9,540.6,75.3C540.6,75.3,540.4,75.2,540.6,75.3z M486,150.4C486,150.4,486,150.5,486,150.4
	C486,150.5,486,150.5,486,150.4z M723.9,73.1c-4.3,4.9-12.4,8.5-15-1.8c-1.2,0.4-0.4,1-1.5,0c-5.2,1.4-11.2,9.6-19.9,6.3
	c-0.7-3.1-10.2-4.1-11-7.7c-3.2,0.4-1.7,2.2-2.8,2.8c-3.3,0-5.8,3-7.9,5.1c-6.2,6,8.5,6.7,11.5,10.7c4.2,5.5,1.2,17.1,1.2,23.7
	c0,13.6,6.4,36.4-13.3,36c-0.2,5.9,20.7,2.8,24.8,2.9c4.3,0.1,8.9,1.4,13.1,1.1c-0.7,0,2.8-1.8,1.4-1.7c-0.3-3.1-5.9-1.6-7.7-3.2
	c-2.9-2.6-3.8-6.9-4.2-10.6c-0.9-8.7-3.4-52.1,6.4-50.1c7,1.4,7.4,10,14.3,3.5c4.3-4.1,11.7-10.9,12.2-17.3
	C724.7,72.5,724.1,72.5,723.9,73.1L723.9,73.1z M691.5,147.6c0.1,0,0.1-0.1,0.1-0.1C691.7,147.6,691.6,147.7,691.5,147.6z
	 M366.8,97.9c-2.6-1-3.2-6.9-5.1-9.3c-2.9-3.8-9.9-11.2-14.7-12.3c-4.9-3.1-13.7-8.7-20.1-6.8c-1.6,0.5-1,5.6-1.9,7
	c-1.2,1.3-15.9,7.7-15.8,9.2c-6.3,1.3-12.4,14.4-13.9,19.8c-0.8,3-0.7,6.7-0.5,9.7c0.3,11.9,6.9,21.8,16.4,29.7
	c3.9,3.3,23,14.7,25.8,10.7c2.2-2,2.6-6.3,4.1-8.8c1-1.7,4.2-1.9,6-2.6c8.2-3.4,13.4-9.3,18-16.8C369,120.9,371.5,104.6,366.8,97.9
	C366.3,97.7,367.7,99.1,366.8,97.9L366.8,97.9z M358.8,96.4h0.1C358.8,96.5,358.8,96.4,358.8,96.4z M357.3,121
	c-2.1,3.5-2.2,8.9-4.7,12.9c-0.8,1.3-4.2,4.3-5.6,4.8c-6.3,2.2-10.4,0.2-15.1,0.2c-11.4,0-28.5-14.7-28.4-27.6
	c0.1-9.4,2.8-18.3,11.6-23.7c9.1-5.5,20.7-1,29,4.5c5.8,3.8,9.4,5.9,11.1,13C356.5,110.1,360.4,115.6,357.3,121z M893.8,69.3h2.3V76
	h1.9v-6.7h2.3v-1.6h-6.5V69.3z M908.4,67.7l-1.9,5.4l-1.9-5.4h-2.8V76h1.9v-6.4l2.1,6.4h1.4l2.1-6.4V76h1.9v-8.3L908.4,67.7z
	 M209.2,152c0-0.9-0.1-1.3-0.6-0.5c-0.8-1.4-4.2-2.3-4.5-0.8c-8.5-1.7-10.5-8.5-10.1-16.4c0.2-3.9-2.2-29.8-0.6-30.5
	c0.1-6.9-1-14.9-0.7-21.7c-0.1-2.1-0.6-29.2,0.1-29.4c-1.4-2.7,0.2-10.8,0.3-13.4c0.1-4-0.3-8-0.3-12.1s0-6.9,1.3-10.8
	c1-2.9,11.8-9,10.1-11.4c-2-5.6-15.5,8.9-17.7,12.1c-2.4,3.6-3.5,7-5.5,10.9c-3.4,6.5-8,5.8-14.1,7.4c0.4,5.6,11.5,1.3,11.6,10.1
	l0.7,28.7c-1.3,0.3,0.7,20.3,0.7,25c0,10,4.5,51-5.1,53.4v0.8c4.3-0.1,9-0.8,13.6-0.8c5.3,0,10.7,1.2,16,1.4
	C206.5,153.8,213,153.7,209.2,152z"></path>
<path class="st0" d="M204,153.9C203.6,153.8,203.7,153.9,204,153.9z"></path>
<path class="st0" d="M286.2,113.4c0-9.9-2.1-19.6-9-27.3c-5.5-6.1-29.4-24.5-35.7-12.2c-4.3,8.4-12.1,8.8-18.3,15.9
	c-3.2,3.6-5.8,7.6-8.1,11.8c-0.3,0.6-2.5,9-2.4,9c-5.9,2.5,5.7,22.3,8,25.1c0.6,6.6,16.5,16.7,22.6,16.9c1.1,2.9,8.8,4.1,10.8,4.5
	c2.3-10.5,15.3-14.2,22.9-20.8C280.8,132.6,289.8,118.8,286.2,113.4L286.2,113.4z M261.6,139.5c-0.4,0.4-0.6,0.5-0.6,0.1
	c-1.2,0.6-6.3,1.5-7.1,0c-4.9,0-9-1.8-13-4.5c-1.3-0.9-6.8-4.3-7.9-4.3c-3.7,0-10.2-11.8-11.1-15.2c-1.7-6.6-1.1-10.7,1.7-16.6
	c4.8-10.3,14.5-16.3,25.5-13.4c7.3,1.9,24.7,11,24.9,18.2c0.2,0.7,0,1.8,0,2.6c1.4-0.7,2.7,9.2,2.8,8.5
	C276.6,123.3,268.8,135.5,261.6,139.5C261.4,139.6,264.3,138,261.6,139.5L261.6,139.5z M472.1,151.1c-16.4-0.8-12.1-23.8-11.4-32.1
	c-1.1-15.1-2.1-29.7-1.3-44.8c0.8-16.2-2.7-38.1,3.1-53.3c2-5.3,6.8-7.1,9.6-11.5c4.7-7.4-4-1.2-7.1-1.2c-0.7-1.2-8.5,8.4-9.1,9.2
	c-2.9,3.7-6.1,7.1-8.9,11.5c-2,3-12.5,4.4-13,6.4c-0.6,2.3,3.1,2.4,4.1,2.8c8.2,3,6.6,8.4,7.2,16.3c0.5,7.7,1.3,17,1.1,23.3
	c-5-3.4-8.3-4.6-9.4-9.4c-0.1,1.6-1.5,2.3-1.3,2.6c-12.8-7.3-27.6-6.8-41,0.9c-10.4,6-14.5,14.4-17.7,25.2
	c-1.6,5.4-1.8,11.3-0.7,16.8c1.2,5.8,6.1,11.4,6.5,17c5.5,9.6,15.1,17,24.3,21.9c1.8,1,10.5,5.3,10.7,2.1c3.5-7.1,17-15.3,25.6-14.5
	c-0.4,1.6-6,11-5.9,11.2c-1.5,0.5-2.2,1.9-0.9,3.2c2.1,2.1,11.6-0.3,14.4-0.4c4.4,0,11.1,1.6,15,0.4c2,0.1,4,0.2,6,0.4
	C474.5,155.2,474.6,151.2,472.1,151.1C471.9,151.1,474.7,151.2,472.1,151.1L472.1,151.1z M405.8,74.1c12.3-5.6,34.2-1.1,38.9,13.1
	c1.3,3.9,0.4,11.5,0.2,16.8c-0.1,2.6,0.7,9.9-2.9,9.7c-1.9-0.1,1,7.8,2.1,8.8c0.4,10.2-5,12.3-14.8,14.8
	c-10.4,2.7-21.2-0.4-28.2-8.6c-7.8-9.2-11.2-22.5-8.3-34.5c1.2-5.1,3.3-10.2,6.4-14.4c0.9-1.2,6.7-5.5,5.2-5.9
	C405.2,73,405.7,73,405.8,74.1C408,73.1,405.7,73.8,405.8,74.1L405.8,74.1z M396.8,80.6c0.1,0.3,0,0.3-0.2,0.3
	C396.7,80.7,396.7,80.7,396.8,80.6z M403.1,145.7c0.2-0.3,0.5-0.2,0.8,0.2C403.6,146,403.3,146,403.1,145.7
	C403.1,145.7,403.2,145.8,403.1,145.7z M405.8,147.3V147c0.3,0.1,0.5,0.3,0.7,0.5C406.2,147.5,406,147.5,405.8,147.3z M407.5,148.2
	c0.1,0.1,0.2,0.1,0.2,0.2C407.5,148.4,407.4,148.3,407.5,148.2C407.6,148.3,407.5,148.3,407.5,148.2z M417.7,147.8
	C417.7,147.8,417.8,147.9,417.7,147.8C417.7,147.9,417.7,147.9,417.7,147.8z M441.2,37.3h-1.1C440.8,36.6,441.1,36.6,441.2,37.3z
	 M655.5,98.9c-0.2-2.9-7.3-9.8-6-11.8c0.8-1.2,0.7-5.1-0.9-3.5c-2,1.9-7.6-5.7-8.1-7.3c-4.2,1.8-7.4-0.9-11.2-4
	c-3.2-3.5-2.7-1.5-6.3-3.2c-6.4-2.9-9.1,1-9.7,7.2c-2.2,3.4-7.6,4.5-11,6.1c-4.9,2.4-7.9,5.7-11.3,9.7c-0.4,1.3-1.8,2.7-2.7,3.8
	c-2.7,1.9-3.8,6.8-4.7,10.1c-1.7,6.3-1.8,16.5,1.8,23.1c2.8,5.3,7.1,7.8,11.2,11.9h-0.4c0.8,1.9,2.6,2.2,3.1,2.8
	c-0.1,0-0.2,0-0.3,0.1c2.2,3.8,10.2,7.5,13.8,9.3c1.9,0.9,11.7,8,11.5,1.2c1.5-3.2,0.3,2,3.1-4.4c1.1-1.3,3.4-2.9,3.9-4.7
	c10.6-5,18.8-8.9,23.1-21.9c0,0.1,0.1,0.2,0.1,0.4C659.7,120.4,656.9,103.2,655.5,98.9C655.4,98.7,656.9,102.9,655.5,98.9
	L655.5,98.9z M596.7,93.7c0.5-0.1,5.6-5.1,4.6-5.2c1-0.7,2.2-1.3,3.3-1.8c0.6,0.5,0.8,0.5,0.5-0.2c11.1-4.9,24.3,1.4,31.5,9.9h-0.3
	c0.5,1.6,2.6,2.9,3.5,4.4c2.6,4.2,3.7,8.5,3.8,13.4c0.1,6.2,0.3,13.2-2.8,18.8c-10.6,9.7-23.7,7.7-34.7-0.7
	c-3.4,1.9-13.1-14.1-13.8-16.8c-0.9-3.4-1.3-11-0.4-13.1c0.9,0.9,0.6-0.2,0.4-1c0.1-0.1,0.1-0.2,0.2-0.4c0,1.6,1.3-1.9,1.4-2.5
	c0.6-1,0.8-0.5,0.8-1.4L596.7,93.7C596.9,93.7,596,94.9,596.7,93.7z M892.3,135.1c-3-3.3-13.4,6-17.9,6.1c-1.2,0.1-2.4,0-3.5-0.6
	c-4.1-2.7,1.7-2.9-5.1-2.3c-5.4,0.4-11-2.1-14.3-5.1c1.1-0.1,0-1.2-0.4-1.4c0.9-3.4,3.5-6.6,6.6-9.4c-0.3-0.8,20.2-15.5,20.2-19
	c0-2.9,11.4-8.5,10.7-10.4c8.7-7.1-2.3-10.5-8.8-15.1c-3.1-2.2-6.3-3.4-9.9-5.1c-1.5-0.7-9.1-3.7-10.7-2.9c-7.8,4.2-16,10-21.5,15.2
	c-4.6,0.3-10.7,12.8-11,15.6c-0.7,1.7-1.1,7-1.4,8.7c0.4,0.9,1.8,3,0,2.8c0.3,2.3,1.9,13.9,3.5,13.3c0.9,2,5.1,11.2,5.3,9.9
	c0.5,0.9,1.1,1.8,1.6,2.7h-0.3c2.3,5.4,11.1,9.5,15.8,12.2c3.7,2.1,9.2,2.4,13.3,3.3c2.7,0.6,5.4,1.2,7.8,2.4c2.5-1.5,4.9-3.2,7-5.2
	C881.8,145,896.4,138.2,892.3,135.1L892.3,135.1z M840.5,121c-3.1-10.4-5.3-24,1.6-33.5c8.9-12.3,29.6-6.8,35.7,6.1h0.3
	c-2.1,3.2-17.2,20.3-17.4,19.9c-4.6,3.7-8.6,7.9-12.8,11.9C844.1,129,841.4,124,840.5,121L840.5,121z"></path>
<path class="st0" d="M858.4,141.1C858.4,141.1,858.4,141.2,858.4,141.1C858.3,141.1,858.4,141.1,858.4,141.1z M857.9,141.7
	c0,0.1-0.1,0.1-0.1,0.2C857.7,141.7,857.8,141.7,857.9,141.7C857.8,141.7,857.8,141.7,857.9,141.7z"></path>
</svg>
